<svg width="260" height="180" viewBox="0 0 260 180" fill="none" xmlns="http://www.w3.org/2000/svg">
<path fill-rule="evenodd" clip-rule="evenodd" d="M50.7363 4C41.536 4.02662 32.7202 7.69322 26.2145 14.1988C19.7089 20.7045 16.0423 29.5203 16.0157 38.7206C16.0423 47.9209 19.7089 56.7368 26.2145 63.2424C32.7202 69.748 41.536 73.4146 50.7363 73.4413C52.5836 73.4459 54.3539 74.1818 55.6601 75.488C56.9663 76.7942 57.7021 78.5645 57.7068 80.4117C57.7021 82.259 56.9663 84.0292 55.6601 85.3354C54.3539 86.6417 52.5836 87.3775 50.7363 87.3822H32.5842C28.095 87.3949 23.7933 89.1839 20.6189 92.3582C17.4445 95.5326 15.6556 99.8343 15.6428 104.324C15.6579 108.811 17.4479 113.111 20.622 116.283C23.7961 119.456 28.0965 121.243 32.5842 121.256C36.4668 121.267 40.1875 122.814 42.9329 125.559C45.6783 128.304 47.2253 132.025 47.2357 135.908C47.2566 142.99 50.0793 149.776 55.0872 154.784C60.0952 159.792 66.8815 162.615 73.9638 162.636H206.363C215.564 162.608 224.379 158.94 230.885 152.434C237.39 145.928 241.057 137.111 241.084 127.911C241.056 118.711 237.389 109.896 230.883 103.39C224.378 96.8849 215.563 93.2179 206.363 93.1901C204.517 93.1832 202.748 92.4464 201.443 91.1406C200.138 89.8348 199.403 88.0658 199.397 86.2197C199.401 84.3732 200.137 82.6036 201.442 81.2975C202.747 79.9914 204.516 79.255 206.363 79.2492H212.583C217.072 79.2354 221.372 77.4459 224.546 74.2716C227.719 71.0974 229.507 66.7963 229.52 62.3079C229.507 57.8243 227.723 53.5277 224.555 50.3549C221.387 47.1821 217.093 45.3905 212.61 45.3708H210.815C206.933 45.3604 203.214 43.8141 200.468 41.0696C197.723 38.3251 196.175 34.6056 196.164 30.7237C196.142 23.6444 193.32 16.8612 188.315 11.8546C183.31 6.8479 176.528 4.02429 169.449 4H50.7363Z" fill="#29B473"/>
<path fill-rule="evenodd" clip-rule="evenodd" d="M240.413 55.3334C241.964 55.3334 243.481 54.8734 244.77 54.0117C246.06 53.1499 247.065 51.9251 247.659 50.492C248.252 49.059 248.408 47.4821 248.105 45.9608C247.802 44.4395 247.056 43.042 245.959 41.9452C244.862 40.8484 243.464 40.1015 241.943 39.7989C240.422 39.4963 238.845 39.6516 237.412 40.2452C235.979 40.8388 234.754 41.844 233.892 43.1337C233.031 44.4234 232.571 45.9397 232.571 47.4908C232.571 49.5708 233.397 51.5656 234.868 53.0363C236.338 54.5071 238.333 55.3334 240.413 55.3334Z" fill="#29B473"/>
<path d="M73.4595 22.9241H57.2024V27.8503H73.4595V22.9241Z" fill="#1A8D58"/>
<path d="M49.3193 28.8418H33.0579V33.768H49.3193V28.8418Z" fill="#1A8D58"/>
<path d="M66.3484 28.8418H50.0913V33.768H66.3484V28.8418Z" fill="#1A8D58"/>
<path d="M56.4258 34.7507H40.1687V39.677H56.4258V34.7507Z" fill="#1A8D58"/>
<path d="M49.3193 40.6641H33.0579V45.5903H49.3193V40.6641Z" fill="#1A8D58"/>
<path d="M66.3484 40.6641H50.0913V45.5903H66.3484V40.6641Z" fill="#1A8D58"/>
<path d="M84.0049 131.056H67.7434V135.978H84.0049V131.056Z" fill="#BBBBF6"/>
<path d="M101.043 131.056H84.7812V135.978H101.043V131.056Z" fill="#BBBBF6"/>
<path d="M76.894 136.969H60.637V141.895H76.894V136.969Z" fill="#BBBBF6"/>
<path d="M93.9275 136.969H77.6704V141.895H93.9275V136.969Z" fill="#1A8D58"/>
<path d="M101.043 142.883H84.7812V147.809H101.043V142.883Z" fill="#1A8D58"/>
<path d="M76.894 148.791H60.637V153.718H76.894V148.791Z" fill="#BBBBF6"/>
<path d="M93.9275 148.791H77.6704V153.718H93.9275V148.791Z" fill="#1A8D58"/>
<path fill-rule="evenodd" clip-rule="evenodd" d="M95.3708 18.9585H166.944C167.822 18.962 168.664 19.3125 169.285 19.9337C169.906 20.5548 170.257 21.3964 170.26 22.2748V124.362H172.805C173.395 124.364 173.96 124.6 174.378 125.017C174.795 125.434 175.031 126 175.033 126.59V135.706C175.032 136.296 174.797 136.863 174.379 137.28C173.961 137.698 173.395 137.933 172.805 137.934H89.5058C88.9159 137.932 88.3509 137.696 87.9342 137.279C87.5174 136.861 87.2829 136.296 87.2817 135.706V126.595C87.284 126.005 87.519 125.44 87.9354 125.023C88.3519 124.606 88.9162 124.37 89.5058 124.366H92.0501V22.2792C92.0535 21.4 92.4047 20.5578 93.0268 19.9365C93.6489 19.3152 94.4915 18.9652 95.3708 18.9629V18.9585Z" fill="#AED9C6"/>
<path fill-rule="evenodd" clip-rule="evenodd" d="M93.5593 18.1909H165.119C165.998 18.1932 166.84 18.5434 167.462 19.1648C168.083 19.7862 168.433 20.6284 168.436 21.5073V125.173C168.433 126.052 168.083 126.894 167.462 127.516C166.84 128.137 165.998 128.487 165.119 128.49H93.5593C92.6804 128.487 91.8382 128.137 91.2168 127.516C90.5954 126.894 90.2452 126.052 90.2429 125.173V21.5073C90.2452 20.6284 90.5954 19.7862 91.2168 19.1648C91.8382 18.5434 92.6804 18.1932 93.5593 18.1909Z" fill="white"/>
<path d="M162.373 75.8716H96.2964V119.129H162.373V75.8716Z" fill="#29B473"/>
<path d="M162.373 24.2534H96.2964V76.9946H162.373V24.2534Z" fill="#C4EEDB"/>
<path fill-rule="evenodd" clip-rule="evenodd" d="M102.811 30.7676V47.3668H126.06V30.7676H102.811ZM102.811 53.881V70.4759H126.06V53.881H102.811ZM132.601 70.4803H155.85V53.881H132.601V70.4803ZM155.85 47.3668V30.7676H132.601V47.3668H155.85Z" fill="#29B473"/>
<path fill-rule="evenodd" clip-rule="evenodd" d="M153.218 43.2785L149.13 47.3669H138.303L152.135 33.5356H153.218V43.2785ZM143.019 33.5356H147.704L133.873 47.3669H132.601V43.9628L143.019 33.5356ZM126.078 67.7167H117.967L126.073 59.6145L126.078 67.7167ZM113.527 67.7167H108.838L122.669 53.8855H126.073V55.1664L113.527 67.7167ZM142.62 53.8855L132.601 63.9047V53.8811L142.62 53.8855Z" fill="#1A8D58"/>
<path fill-rule="evenodd" clip-rule="evenodd" d="M87.6852 123.594H170.984C171.573 123.597 172.138 123.832 172.554 124.248C172.971 124.665 173.206 125.229 173.208 125.818V134.934C173.206 135.523 172.971 136.088 172.554 136.505C172.138 136.923 171.574 137.159 170.984 137.162H87.6852C87.0949 137.16 86.5294 136.924 86.112 136.507C85.6946 136.09 85.4591 135.524 85.4568 134.934V125.823C85.4591 125.233 85.6948 124.668 86.1123 124.251C86.5298 123.834 87.0953 123.6 87.6852 123.599V123.594Z" fill="#E0F8ED"/>
<path fill-rule="evenodd" clip-rule="evenodd" d="M131.609 81.3374L130.732 81.4295H130.201L129.67 81.4076L128.819 81.2496L123.95 76.2708L112.764 81.197C113.106 98.7788 111.268 107.03 109.11 119.151H143.129C143.172 113.93 145.278 106.197 145.721 101.999L147.634 82.5657L136.869 76.7708L131.609 81.3374Z" fill="#443572"/>
<path fill-rule="evenodd" clip-rule="evenodd" d="M133.667 119.133H139.808C140.869 118.195 142.026 117.371 143.26 116.676C143.747 111.706 145.331 105.561 145.708 101.981L145.761 101.428C145.623 100.089 145.477 98.6398 145.322 97.0811C144.704 91.3126 146.046 87.4742 147.375 85.1844L147.634 82.5524L136.869 76.7576L135.176 78.2403L134.592 81.0214C134.592 81.0214 140.413 85.5134 141.115 87.9656C141.817 90.4177 139.361 107.324 137.606 114.619C137.167 116.404 135.685 117.896 133.68 119.133H133.667Z" fill="#31275B"/>
<path fill-rule="evenodd" clip-rule="evenodd" d="M112.79 81.8855C112.966 92.6899 112.308 99.9367 111.26 106.824C111.26 106.824 116.962 85.465 116.339 84.8904C115.844 84.4517 115.229 83.9209 112.79 81.8943V81.8855Z" fill="#31275B"/>
<path fill-rule="evenodd" clip-rule="evenodd" d="M136.364 75.5075C134.544 74.5838 132.546 74.0641 130.506 73.9839C128.467 73.9036 126.434 74.2647 124.547 75.0425L125.165 76.9112L135.601 77.3236L136.364 75.5075Z" fill="#B1AEC1"/>
<path fill-rule="evenodd" clip-rule="evenodd" d="M131.609 81.3373L130.732 81.4294L129.67 81.3899L128.819 81.232L125.582 77.8849L125.069 78.0209L123.924 79.4115C123.924 79.4115 126.179 85.2458 126.31 85.4476C126.442 85.6494 126.701 85.7547 127.095 85.3204C127.49 84.8861 128.71 83.4473 128.71 83.4473C128.71 83.4473 129.065 83.1051 129.205 83.5131C129.346 83.921 131.14 82.8858 131.14 82.8858L131.25 83.2762C131.25 83.2762 131.53 82.9647 131.776 83.3946C132.022 83.8245 133.246 85.6801 133.333 85.7634C133.421 85.8468 133.803 86.1319 134.101 85.5792C134.399 85.0265 137.58 78.5605 138.137 77.4419L136.869 76.7576L131.609 81.3373Z" fill="#31275B"/>
<path fill-rule="evenodd" clip-rule="evenodd" d="M131.609 81.3374L130.732 81.4295L129.67 81.39L128.819 81.2321L128.495 80.8987L127.731 82.105C127.731 82.105 129.306 82.6841 129.249 84.0834L126.178 119.133H127.872L130.942 84.1492C131.061 82.7542 132.609 82.2936 132.609 82.2936L131.943 81.0303L131.609 81.3374Z" fill="#31275B"/>
<path fill-rule="evenodd" clip-rule="evenodd" d="M130.789 66.8918C131.976 66.9432 133.094 67.4617 133.901 68.3345C134.707 69.2072 135.135 70.3632 135.092 71.5505L134.86 77.4813C134.808 78.6683 134.29 79.7868 133.417 80.5929C132.544 81.3991 131.388 81.8274 130.201 81.7846C129.015 81.7322 127.897 81.2133 127.091 80.3408C126.285 79.4684 125.856 78.313 125.898 77.126L126.13 71.1952C126.182 70.0082 126.7 68.8897 127.573 68.0836C128.446 67.2774 129.602 66.849 130.789 66.8918Z" fill="#E76D60"/>
<path fill-rule="evenodd" clip-rule="evenodd" d="M129.192 80.8285L129.71 80.7627C129.776 80.8486 129.812 80.953 129.815 81.061C129.815 81.2452 129.815 81.7936 129.815 81.7936C129.622 81.855 128.609 82.0217 128.648 81.8769C128.648 81.8418 129.197 80.8285 129.197 80.8285H129.192Z" fill="#31275B"/>
<path fill-rule="evenodd" clip-rule="evenodd" d="M131.285 80.9119L130.776 80.8066C130.704 80.8877 130.66 80.9888 130.649 81.0962C130.627 81.2804 130.592 81.8244 130.592 81.8244C130.776 81.9779 131.78 82.1446 131.754 81.9998C131.754 81.9647 131.289 80.9119 131.289 80.9119H131.285Z" fill="#31275B"/>
<path fill-rule="evenodd" clip-rule="evenodd" d="M136.364 75.5073C136.421 75.56 137.014 76.6961 137.321 77.262C137.41 77.4457 137.459 77.6463 137.465 77.8504C137.471 78.0546 137.434 78.2577 137.356 78.4464C137.106 79.179 133.987 85.1449 133.987 85.1449C133.987 85.1449 133.767 85.4607 133.452 85.1449C133.136 84.829 130.771 80.8372 130.771 80.8372L135.733 76.0118C135.965 75.7354 136.312 75.4942 136.364 75.5468V75.5073Z" fill="white"/>
<path fill-rule="evenodd" clip-rule="evenodd" d="M124.551 75.038C124.512 75.038 123.81 76.1742 123.459 76.7006C123.356 76.8774 123.292 77.074 123.271 77.2774C123.25 77.4808 123.272 77.6864 123.336 77.8806C123.529 78.6307 126.17 84.8247 126.17 84.8247C126.17 84.8247 126.363 85.1537 126.705 84.8511C127.047 84.5484 129.714 80.767 129.714 80.767L125.143 75.5513C124.836 75.1652 124.586 75.0205 124.547 75.038H124.551Z" fill="white"/>
<path fill-rule="evenodd" clip-rule="evenodd" d="M121.924 61.2988H121.717C121.097 61.3391 120.508 61.5893 120.049 62.0081C119.589 62.427 119.285 62.9897 119.188 63.6039C119.09 64.218 119.204 64.8472 119.511 65.3881C119.818 65.9289 120.3 66.3493 120.877 66.5803C121.454 66.8113 122.093 66.8391 122.689 66.6591C123.284 66.4792 123.8 66.1022 124.153 65.59C124.506 65.0779 124.674 64.461 124.63 63.8407C124.586 63.2203 124.332 62.6334 123.911 62.1762C123.863 62.9877 123.595 63.9528 122.56 63.9045L122.814 62.3472C122.83 62.2197 122.819 62.0904 122.783 61.9671C122.747 61.8438 122.686 61.7293 122.604 61.6306C122.521 61.5319 122.42 61.4512 122.305 61.3934C122.19 61.3355 122.065 61.3019 121.937 61.2944L121.924 61.2988Z" fill="#E76D60"/>
<path fill-rule="evenodd" clip-rule="evenodd" d="M141.457 64.1328L141.65 64.1986C142.233 64.4126 142.725 64.8183 143.046 65.349C143.367 65.8797 143.498 66.5038 143.417 67.1188C143.336 67.7338 143.049 68.303 142.602 68.733C142.155 69.1631 141.575 69.4282 140.957 69.485C140.34 69.5418 139.721 69.3868 139.203 69.0455C138.685 68.7042 138.299 68.1969 138.108 67.6069C137.916 67.0169 137.931 66.3794 138.15 65.799C138.369 65.2187 138.779 64.7301 139.312 64.4135C139.128 65.2031 139.111 66.2121 140.115 66.4577L140.317 64.8917C140.338 64.765 140.385 64.6441 140.455 64.5363C140.525 64.4285 140.616 64.3362 140.723 64.2651C140.83 64.194 140.95 64.1455 141.076 64.1228C141.203 64.1 141.332 64.1034 141.457 64.1328Z" fill="#E76D60"/>
<path fill-rule="evenodd" clip-rule="evenodd" d="M133.653 49.1959C131.197 48.847 128.702 49.4843 126.714 50.9687C124.726 52.453 123.406 54.6639 123.042 57.1183L121.818 65.5495C121.468 68.0062 122.105 70.5016 123.589 72.4901C125.074 74.4786 127.285 75.7984 129.74 76.1609C132.197 76.5098 134.692 75.8725 136.68 74.3882C138.668 72.9038 139.988 70.693 140.352 68.2385L141.576 59.8117C141.925 57.3547 141.288 54.8593 139.803 52.8704C138.319 50.8815 136.108 49.5605 133.653 49.1959Z" fill="#FCB187"/>
<path fill-rule="evenodd" clip-rule="evenodd" d="M128.433 75.8717C128.864 75.9985 129.304 76.0938 129.749 76.1568C132.206 76.5058 134.701 75.8685 136.689 74.3841C138.677 72.8997 139.997 70.6889 140.361 68.2345L141.585 59.8076C141.793 58.3314 141.643 56.8266 141.146 55.421C137.4 54.3067 134.211 53.4075 134.211 53.4075C134.211 53.4075 122.406 53.4075 123.682 56.658L124.016 57.202C124.414 56.9043 124.877 56.7047 125.368 56.6194C125.858 56.534 126.361 56.5653 126.836 56.7106C128.644 57.1493 134.64 58.711 136.623 59.4436C138.606 60.1761 139.132 61.6369 138.817 63.6548C138.501 65.6727 138.724 66.4403 139.22 66.7737C139.22 66.7737 138.461 75.8673 128.416 75.8673L128.433 75.8717Z" fill="#F49677"/>
<path fill-rule="evenodd" clip-rule="evenodd" d="M128.332 69.0634C128.216 69.6952 128.355 70.3473 128.72 70.8762C129.084 71.4052 129.644 71.7677 130.276 71.8841C130.907 72.0004 131.559 71.8611 132.088 71.4966C132.617 71.1322 132.98 70.5725 133.096 69.9408C133.112 69.832 133.087 69.7211 133.025 69.6302C132.964 69.5392 132.87 69.4747 132.763 69.4495L128.815 68.7169C128.706 68.7008 128.595 68.7261 128.504 68.7878C128.413 68.8496 128.349 68.9432 128.324 69.0503L128.332 69.0634Z" fill="white"/>
<path fill-rule="evenodd" clip-rule="evenodd" d="M128.872 71.0856C129.2 71.4674 129.638 71.7379 130.126 71.8597C130.614 71.9815 131.128 71.9486 131.596 71.7655C131.528 71.4808 131.379 71.2221 131.166 71.0211C130.953 70.8201 130.687 70.6855 130.399 70.6337C130.128 70.5602 129.843 70.5623 129.574 70.6396C129.305 70.717 129.062 70.8667 128.872 71.0724V71.0856Z" fill="white"/>
<path fill-rule="evenodd" clip-rule="evenodd" d="M132.811 69.4758L129.091 68.7915C129.02 68.9596 129.004 69.1464 129.046 69.3242C129.089 69.502 129.188 69.6613 129.328 69.7785C129.64 69.9496 132.329 70.3751 132.561 70.2172C132.7 70.0003 132.779 69.7506 132.789 69.4934L132.811 69.4758Z" fill="white"/>
<path fill-rule="evenodd" clip-rule="evenodd" d="M136.272 68.1115C136.032 68.0714 135.785 68.1035 135.562 68.2038C135.34 68.3042 135.152 68.4682 135.023 68.6751C134.894 68.882 134.83 69.1226 134.837 69.3663C134.845 69.6101 134.925 69.8461 135.067 70.0444C135.209 70.2428 135.406 70.3946 135.634 70.4807C135.862 70.5668 136.111 70.5833 136.349 70.528C136.586 70.4728 136.802 70.3483 136.969 70.1704C137.135 69.9924 137.246 69.769 137.285 69.5284C137.338 69.2064 137.26 68.8768 137.07 68.6114C136.881 68.346 136.594 68.1664 136.272 68.1115Z" fill="#E76D60"/>
<path fill-rule="evenodd" clip-rule="evenodd" d="M125.819 66.3918C125.578 66.3517 125.331 66.3838 125.109 66.4841C124.887 66.5844 124.699 66.7484 124.57 66.9554C124.441 67.1623 124.376 67.4029 124.384 67.6466C124.392 67.8904 124.471 68.1264 124.613 68.3247C124.755 68.5231 124.953 68.6749 125.181 68.761C125.409 68.8471 125.658 68.8635 125.895 68.8083C126.133 68.753 126.349 68.6286 126.515 68.4506C126.682 68.2727 126.792 68.0493 126.832 67.8087C126.884 67.4866 126.807 67.157 126.617 66.8917C126.427 66.6263 126.14 66.4466 125.819 66.3918Z" fill="#E76D60"/>
<path fill-rule="evenodd" clip-rule="evenodd" d="M122.046 64.0012C122.046 64.0012 123.511 63.6415 123.858 61.2683C124.205 58.8951 124.112 59.4786 124.297 58.2459C124.481 57.0133 125.648 54.9691 128.157 55.3332L132.675 55.9868L137.194 56.6404C139.698 57.0045 140.264 59.2943 140.062 60.5314C139.861 61.7684 139.97 61.185 139.624 63.5582C139.277 65.9314 140.58 66.6947 140.58 66.6947C140.856 64.8128 141.532 64.1592 141.532 64.1592L142.216 59.4435C142.537 57.2501 142.348 54.2058 139.755 51.7536C138.084 50.1864 135.973 49.1698 133.706 48.8411C131.438 48.5124 129.125 48.8875 127.078 49.9156C123.897 51.5211 122.853 54.3856 122.533 56.5877C122.213 58.7899 121.849 61.299 121.849 61.299C121.849 61.299 122.314 62.1194 122.046 64.0012Z" fill="#31275B"/>
<path fill-rule="evenodd" clip-rule="evenodd" d="M128.152 55.3199C129.515 56.6752 131.259 57.5833 133.15 57.9234C135.042 58.2635 136.992 58.0194 138.742 57.2237C138.742 57.2237 141.457 55.6226 142.304 56.8465C142.304 56.8465 144.199 51.8939 139.94 50.613C139.94 50.613 140.918 50.1217 140.861 49.4856C140.804 48.8495 139.4 46.9413 135.009 47.8976C135.009 47.8976 135.154 46.3184 133.745 45.8622C132.337 45.406 127.644 46.9983 126.525 50.2226C126.525 50.2226 125.613 52.5914 128.179 55.3199H128.152Z" fill="#443572"/>
<path fill-rule="evenodd" clip-rule="evenodd" d="M142.655 53.7319C142.624 53.5001 142.574 53.2712 142.506 53.0476C141.278 53.6925 138.646 54.5742 134.553 53.4863C130.938 52.5475 130.644 48.911 130.96 46.2263C129.545 46.7294 128.289 47.5982 127.319 48.7443C127.319 50.0603 127.999 51.9685 130.978 53.982C135.193 56.8246 140.523 54.7584 142.655 53.7144V53.7319Z" fill="#4F4D6E"/>
<path fill-rule="evenodd" clip-rule="evenodd" d="M88.1196 42.594V43.3135C88.4078 43.4608 88.6278 43.7139 88.7338 44.0197C88.8853 44.3483 89.0143 44.6869 89.1198 45.033L92.8792 43.6688V43.3749L92.5809 42.4975C92.5578 42.4567 92.5457 42.4106 92.5457 42.3637C92.5457 42.3169 92.5578 42.2708 92.5809 42.2299L90.6727 41.3877L88.1196 42.594Z" fill="#FCB187"/>
<path fill-rule="evenodd" clip-rule="evenodd" d="M123.257 76.56C123.257 76.56 105.272 67.1594 102.42 63.9615C99.5689 60.7636 98.2354 56.2979 93.8838 43.5239C93.8838 43.5239 93.7259 42.9273 92.8047 42.9931C91.8835 43.0589 89.2953 43.967 88.9312 44.4056C88.7422 44.5979 88.6033 44.8337 88.5268 45.0922C88.4503 45.3508 88.4386 45.6242 88.4925 45.8883C88.6198 46.4893 93.7566 66.3873 95.2042 69.3615C96.6518 72.3357 109.825 84.5789 112.567 87.4346C115.308 90.2904 123.244 76.5556 123.244 76.5556L123.257 76.56Z" fill="#443572"/>
<path fill-rule="evenodd" clip-rule="evenodd" d="M92.0458 43.1291C90.8964 43.4099 89.212 44.0591 88.9312 44.4056C88.7422 44.5979 88.6033 44.8337 88.5268 45.0922C88.4503 45.3508 88.4386 45.6242 88.4925 45.8883C88.6198 46.4893 93.7566 66.3873 95.2042 69.3615C96.6518 72.3357 109.825 84.5789 112.567 87.4347C113.422 88.312 114.786 87.597 116.26 86.1713C116.379 85.4212 116.414 84.9518 116.326 84.8553C115.694 84.2719 114.852 83.5919 110.224 79.7316C105.596 75.8714 98.4021 69.2431 97.2133 66.7909C96.0245 64.3387 92.3353 51.3585 91.1465 47.4675C89.9972 43.7213 91.8878 43.1423 92.0238 43.1072L92.0458 43.1291Z" fill="#31275B"/>
<path fill-rule="evenodd" clip-rule="evenodd" d="M93.5942 38.3082C93.7851 37.2909 94.2543 36.3464 94.9497 35.5797C95.3884 35.1411 93.3617 33.9172 92.5765 36.0184C92.5765 36.0184 91.8702 36.8168 91.4623 36.5843C91.0543 36.3518 90.4139 30.1578 90.3437 29.4822C90.3307 29.3644 90.2885 29.2517 90.2208 29.1543C90.1531 29.057 90.0621 28.9781 89.9562 28.9249C89.8502 28.8717 89.7326 28.8459 89.6141 28.8497C89.4956 28.8536 89.38 28.8871 89.2777 28.9471C89.0715 29.1401 89.1856 30.1183 89.2426 31.3641C89.2997 32.6099 89.3567 34.0225 89.2426 34.1497C89.1286 34.2769 88.8522 34.2725 88.5539 33.6013C88.2556 32.9302 86.7422 29.162 86.4088 28.9778C86.0754 28.7935 85.4569 29.1357 85.5315 29.7674C85.6061 30.3991 87.2598 34.1541 87.3213 34.6892C87.3827 35.2244 86.8387 35.2112 86.5931 34.9173C86.3474 34.6234 83.961 30.8158 83.6584 30.6315C83.3557 30.4473 82.7328 30.8202 82.9609 31.4606C83.189 32.1011 85.3165 35.8473 85.3034 36.1544C85.2902 36.4615 84.8647 36.7071 84.1848 36.2202C83.5048 35.7333 82.1669 34.5532 81.9081 34.5401C81.6493 34.5269 81.3159 35.3209 81.9344 35.9482C82.5529 36.5755 84.0268 38.1898 84.2155 38.4574C85.2113 39.8611 85.7245 41.414 86.6545 42.4054C87.0068 42.7704 87.4394 43.0483 87.9178 43.217C88.5253 43.4333 89.1707 43.5231 89.8142 43.4809C90.4576 43.4386 91.0857 43.2652 91.6597 42.9713C93.5986 41.9185 93.2521 40.234 93.6162 38.2907L93.5942 38.3082Z" fill="#FCB187"/>
<path fill-rule="evenodd" clip-rule="evenodd" d="M123.595 122.576L122.406 123.594H112.479C112.479 123.594 112.865 122.366 113.514 121.98C113.7 121.9 113.9 121.858 114.102 121.857C114.307 121.6 114.57 121.396 114.869 121.26C116.179 120.861 117.51 120.539 118.857 120.295C120.072 120.085 121.243 120.506 121.822 120.506C122.316 120.492 122.808 120.451 123.296 120.383L123.595 122.576Z" fill="#FCB187"/>
<path fill-rule="evenodd" clip-rule="evenodd" d="M147.616 82.5481C147.616 82.5481 149.441 83.8378 150.318 87.7288C151.196 91.6198 153.389 111.417 153.828 114.839C154.267 118.26 154.109 123.612 146.537 123.612H122.41V120.103C122.391 119.937 122.408 119.77 122.462 119.612C122.515 119.454 122.603 119.311 122.719 119.191C122.835 119.072 122.976 118.98 123.132 118.922C123.288 118.864 123.455 118.842 123.621 118.857C124.235 118.857 142.668 116.856 143.545 116.611C144.423 116.365 144.861 115.874 144.861 114.821C144.861 113.768 141.883 101.599 141.247 97.0417C140.611 92.4839 143.282 82.4516 147.612 82.5656L147.616 82.5481Z" fill="#443572"/>
<path fill-rule="evenodd" clip-rule="evenodd" d="M153.959 116.527C154.03 119.782 152.946 123.594 146.537 123.594H122.41V120.822C123.003 121.559 124.187 122.406 126.512 122.406H145.524C148.432 122.406 153.859 120.3 153.964 116.532L153.959 116.527Z" fill="#31275B"/>
<path fill-rule="evenodd" clip-rule="evenodd" d="M141.251 97.0064C141.69 100.077 143.194 106.657 144.12 110.903C144.437 112.183 144.685 113.479 144.861 114.786C144.831 115.755 144.475 116.246 143.734 116.51C145.559 116.207 146.177 115.352 146.493 114.198C146.765 113.215 146.524 109.079 145.756 101.433C145.619 100.093 145.472 98.6441 145.317 97.0854C144.699 91.3169 146.041 87.4786 147.37 85.1887C147.71 84.5993 148.097 84.0388 148.529 83.513C148.277 83.1493 147.974 82.8242 147.629 82.5479C143.295 82.4163 140.633 92.4487 141.264 97.024L141.251 97.0064Z" fill="#31275B"/>
<path fill-rule="evenodd" clip-rule="evenodd" d="M129.407 67.5104C129.407 67.5104 130.232 66.6331 130.495 66.4225C130.758 66.212 130.811 66.4576 130.78 66.7998C130.749 67.142 130.837 67.8 130.653 67.9579C130.469 68.1158 129.556 67.9579 129.363 67.8789C129.17 67.7999 129.403 67.5148 129.403 67.5148L129.407 67.5104Z" fill="#FCCCB1"/>
<path d="M68.7831 86.9172C68.7831 86.8445 68.812 86.7748 68.8634 86.7234C68.9148 86.672 68.9845 86.6431 69.0572 86.6431C69.13 86.6431 69.1997 86.672 69.2511 86.7234C69.3025 86.7748 69.3314 86.8445 69.3314 86.9172V88.128C69.3314 88.2007 69.3025 88.2704 69.2511 88.3218C69.1997 88.3732 69.13 88.4021 69.0572 88.4021C68.9845 88.4021 68.9148 88.3732 68.8634 88.3218C68.812 88.2704 68.7831 88.2007 68.7831 88.128V86.9172ZM66.9143 87.9174C66.864 87.8658 66.8358 87.7965 66.8358 87.7244C66.8358 87.6523 66.864 87.583 66.9143 87.5314C66.9396 87.5059 66.9697 87.4857 67.0028 87.4719C67.0359 87.4581 67.0715 87.451 67.1074 87.451C67.1432 87.451 67.1788 87.4581 67.2119 87.4719C67.245 87.4857 67.2751 87.5059 67.3004 87.5314L68.1777 88.4087C68.2032 88.434 68.2234 88.4641 68.2372 88.4972C68.251 88.5303 68.2581 88.5658 68.2581 88.6017C68.2581 88.6376 68.251 88.6731 68.2372 88.7063C68.2234 88.7394 68.2032 88.7695 68.1777 88.7947C68.1261 88.8451 68.0568 88.8733 67.9847 88.8733C67.9126 88.8733 67.8433 88.8451 67.7917 88.7947L66.9143 87.9174ZM66.3002 89.944C66.2335 89.9356 66.1721 89.9031 66.1276 89.8526C66.0831 89.8021 66.0586 89.7372 66.0586 89.6699C66.0586 89.6026 66.0831 89.5376 66.1276 89.4872C66.1721 89.4367 66.2335 89.4042 66.3002 89.3957H67.5329C67.5718 89.3908 67.6113 89.3942 67.6488 89.4057C67.6863 89.4172 67.7209 89.4366 67.7503 89.4625C67.7798 89.4885 67.8033 89.5204 67.8195 89.5561C67.8356 89.5919 67.844 89.6307 67.844 89.6699C67.844 89.7091 67.8356 89.7479 67.8195 89.7836C67.8033 89.8194 67.7798 89.8513 67.7503 89.8772C67.7209 89.9032 67.6863 89.9225 67.6488 89.934C67.6113 89.9456 67.5718 89.949 67.5329 89.944H66.3002ZM67.3004 91.8084C67.2492 91.8596 67.1797 91.8883 67.1074 91.8883C67.035 91.8883 66.9655 91.8596 66.9143 91.8084C66.8631 91.7572 66.8344 91.6878 66.8344 91.6154C66.8344 91.543 66.8631 91.4735 66.9143 91.4224L67.7917 90.545C67.8433 90.4946 67.9126 90.4665 67.9847 90.4665C68.0568 90.4665 68.1261 90.4946 68.1777 90.545C68.2032 90.5703 68.2234 90.6004 68.2372 90.6335C68.251 90.6666 68.2581 90.7022 68.2581 90.738C68.2581 90.7739 68.251 90.8094 68.2372 90.8426C68.2234 90.8757 68.2032 90.9058 68.1777 90.9311L67.3004 91.8084ZM69.327 92.4225C69.327 92.4952 69.2981 92.565 69.2467 92.6164C69.1953 92.6678 69.1256 92.6967 69.0528 92.6967C68.9801 92.6967 68.9104 92.6678 68.859 92.6164C68.8076 92.565 68.7787 92.4952 68.7787 92.4225V91.1986C68.7787 91.1259 68.8076 91.0562 68.859 91.0048C68.9104 90.9534 68.9801 90.9245 69.0528 90.9245C69.1256 90.9245 69.1953 90.9534 69.2467 91.0048C69.2981 91.0562 69.327 91.1259 69.327 91.1986V92.4225ZM71.1957 91.4224C71.2469 91.4735 71.2757 91.543 71.2757 91.6154C71.2757 91.6878 71.2469 91.7572 71.1957 91.8084C71.1446 91.8596 71.0751 91.8883 71.0027 91.8883C70.9303 91.8883 70.8609 91.8596 70.8097 91.8084L69.9324 90.9311C69.8812 90.8799 69.8524 90.8104 69.8524 90.738C69.8524 90.6656 69.8812 90.5962 69.9324 90.545C69.9836 90.4938 70.053 90.4651 70.1254 90.4651C70.1978 90.4651 70.2672 90.4938 70.3184 90.545L71.1957 91.4224ZM71.8055 89.3913C71.8444 89.3864 71.8839 89.3898 71.9214 89.4013C71.9589 89.4128 71.9935 89.4322 72.023 89.4582C72.0524 89.4841 72.076 89.516 72.0921 89.5517C72.1083 89.5875 72.1166 89.6263 72.1166 89.6655C72.1166 89.7047 72.1083 89.7435 72.0921 89.7792C72.076 89.815 72.0524 89.8469 72.023 89.8728C71.9935 89.8988 71.9589 89.9181 71.9214 89.9297C71.8839 89.9412 71.8444 89.9446 71.8055 89.9397H70.5728C70.5061 89.9312 70.4447 89.8987 70.4002 89.8482C70.3558 89.7977 70.3312 89.7328 70.3312 89.6655C70.3312 89.5982 70.3558 89.5332 70.4002 89.4828C70.4447 89.4323 70.5061 89.3998 70.5728 89.3913H71.8055ZM70.8053 87.527C70.8306 87.5015 70.8607 87.4813 70.8938 87.4675C70.9269 87.4537 70.9625 87.4466 70.9984 87.4466C71.0342 87.4466 71.0698 87.4537 71.1029 87.4675C71.136 87.4813 71.1661 87.5015 71.1914 87.527C71.2417 87.5786 71.2699 87.6479 71.2699 87.72C71.2699 87.7921 71.2417 87.8614 71.1914 87.913L70.314 88.7903C70.2887 88.8157 70.2586 88.8358 70.2255 88.8495C70.1923 88.8632 70.1569 88.8703 70.121 88.8703C70.0852 88.8703 70.0497 88.8632 70.0166 88.8495C69.9834 88.8358 69.9533 88.8157 69.928 88.7903C69.9027 88.765 69.8825 88.7349 69.8688 88.7018C69.8551 88.6687 69.848 88.6332 69.848 88.5973C69.848 88.5615 69.8551 88.526 69.8688 88.4929C69.8825 88.4598 69.9027 88.4297 69.928 88.4043L70.8053 87.527Z" fill="white"/>
<path fill-rule="evenodd" clip-rule="evenodd" d="M15.2525 134.377H16.7922C16.9295 134.377 17.0612 134.431 17.1582 134.528C17.2553 134.625 17.3099 134.757 17.3099 134.894V136.447C17.3087 136.584 17.2536 136.714 17.1567 136.81C17.0597 136.907 16.9287 136.96 16.7922 136.96H15.2525C15.1152 136.96 14.9835 136.906 14.8865 136.809C14.7894 136.712 14.7349 136.58 14.7349 136.443V134.89C14.7349 134.822 14.7483 134.755 14.7743 134.692C14.8003 134.629 14.8384 134.572 14.8865 134.524C14.9345 134.476 14.9916 134.438 15.0544 134.412C15.1172 134.386 15.1845 134.372 15.2525 134.372V134.377Z" fill="#29B473"/>
<path fill-rule="evenodd" clip-rule="evenodd" d="M20.5469 134.377H22.0998C22.2371 134.377 22.3688 134.431 22.4658 134.528C22.5629 134.625 22.6174 134.757 22.6174 134.894V136.447C22.6174 136.584 22.5629 136.716 22.4658 136.813C22.3688 136.91 22.2371 136.965 22.0998 136.965H20.5469C20.4096 136.965 20.278 136.91 20.1809 136.813C20.0838 136.716 20.0293 136.584 20.0293 136.447V134.89C20.0293 134.822 20.0427 134.755 20.0687 134.692C20.0947 134.629 20.1328 134.572 20.1809 134.524C20.229 134.476 20.286 134.438 20.3488 134.412C20.4116 134.386 20.479 134.372 20.5469 134.372V134.377Z" fill="#29B473"/>
<path fill-rule="evenodd" clip-rule="evenodd" d="M25.8375 134.377H27.3903C27.5276 134.377 27.6593 134.431 27.7564 134.528C27.8534 134.625 27.908 134.757 27.908 134.894V136.447C27.908 136.584 27.8534 136.716 27.7564 136.813C27.6593 136.91 27.5276 136.965 27.3903 136.965H25.8375C25.7002 136.965 25.5685 136.91 25.4714 136.813C25.3744 136.716 25.3198 136.584 25.3198 136.447V134.89C25.3198 134.822 25.3332 134.755 25.3592 134.692C25.3852 134.629 25.4234 134.572 25.4714 134.524C25.5195 134.476 25.5766 134.438 25.6394 134.412C25.7022 134.386 25.7695 134.372 25.8375 134.372V134.377Z" fill="#DED8F9"/>
<path fill-rule="evenodd" clip-rule="evenodd" d="M31.1365 134.377H32.685C32.8223 134.377 32.954 134.431 33.051 134.528C33.1481 134.625 33.2027 134.757 33.2027 134.894V136.447C33.2027 136.584 33.1481 136.716 33.051 136.813C32.954 136.91 32.8223 136.965 32.685 136.965H31.1365C30.9992 136.965 30.8676 136.91 30.7705 136.813C30.6734 136.716 30.6189 136.584 30.6189 136.447V134.89C30.6189 134.822 30.6323 134.755 30.6583 134.692C30.6843 134.629 30.7224 134.572 30.7705 134.524C30.8186 134.476 30.8756 134.438 30.9384 134.412C31.0012 134.386 31.0685 134.372 31.1365 134.372V134.377Z" fill="#DED8F9"/>
<path d="M49.0693 14.5061C49.0693 14.434 49.098 14.3648 49.149 14.3138C49.2 14.2628 49.2692 14.2341 49.3413 14.2341C49.4134 14.2341 49.4826 14.2628 49.5336 14.3138C49.5846 14.3648 49.6133 14.434 49.6133 14.5061V15.7475C49.6133 15.8197 49.5846 15.8888 49.5336 15.9399C49.4826 15.9909 49.4134 16.0195 49.3413 16.0195C49.2692 16.0195 49.2 15.9909 49.149 15.9399C49.098 15.8888 49.0693 15.8197 49.0693 15.7475V14.5061ZM47.2006 15.5107C47.1683 15.4872 47.1414 15.457 47.1219 15.4221C47.1024 15.3873 47.0907 15.3486 47.0876 15.3088C47.0844 15.2689 47.09 15.2289 47.1038 15.1914C47.1176 15.154 47.1394 15.1199 47.1676 15.0917C47.1959 15.0634 47.2299 15.0416 47.2674 15.0278C47.3049 15.014 47.3449 15.0084 47.3847 15.0116C47.4246 15.0147 47.4632 15.0264 47.4981 15.046C47.5329 15.0655 47.5631 15.0923 47.5866 15.1246L48.464 16.002C48.5152 16.0532 48.5439 16.1226 48.5439 16.195C48.5439 16.2674 48.5152 16.3368 48.464 16.388C48.4128 16.4392 48.3433 16.4679 48.2709 16.4679C48.1986 16.4679 48.1291 16.4392 48.0779 16.388L47.2006 15.5107ZM46.5908 17.5373C46.5544 17.5379 46.5182 17.5312 46.4844 17.5175C46.4506 17.5038 46.4199 17.4835 46.3941 17.4577C46.3683 17.4319 46.348 17.4012 46.3343 17.3674C46.3206 17.3336 46.3139 17.2974 46.3145 17.2609C46.3145 17.2249 46.3217 17.1891 46.3356 17.1558C46.3495 17.1226 46.37 17.0924 46.3957 17.0671C46.4214 17.0417 46.4519 17.0218 46.4854 17.0084C46.5189 16.995 46.5548 16.9884 46.5908 16.989H47.8235C47.8956 16.989 47.9648 17.0176 48.0158 17.0686C48.0668 17.1196 48.0955 17.1888 48.0955 17.2609C48.0961 17.297 48.0895 17.3329 48.0761 17.3664C48.0626 17.3999 48.0427 17.4304 48.0174 17.4561C47.9921 17.4818 47.9619 17.5022 47.9286 17.5162C47.8953 17.5301 47.8596 17.5373 47.8235 17.5373H46.5908ZM47.591 19.406C47.5378 19.4447 47.4725 19.4631 47.4069 19.458C47.3413 19.4528 47.2797 19.4244 47.2331 19.3779C47.1866 19.3314 47.1582 19.2697 47.153 19.2041C47.1479 19.1385 47.1663 19.0732 47.205 19.02L48.0823 18.1427C48.1076 18.1172 48.1377 18.097 48.1708 18.0832C48.2039 18.0694 48.2395 18.0623 48.2753 18.0623C48.3112 18.0623 48.3467 18.0694 48.3799 18.0832C48.413 18.097 48.4431 18.1172 48.4684 18.1427C48.4938 18.1679 48.514 18.198 48.5278 18.2311C48.5416 18.2643 48.5487 18.2998 48.5487 18.3357C48.5487 18.3716 48.5416 18.4071 48.5278 18.4402C48.514 18.4733 48.4938 18.5034 48.4684 18.5287L47.591 19.406ZM49.6177 20.0158C49.6177 20.0879 49.589 20.1571 49.538 20.2081C49.487 20.2591 49.4178 20.2878 49.3457 20.2878C49.2736 20.2878 49.2044 20.2591 49.1534 20.2081C49.1024 20.1571 49.0737 20.0879 49.0737 20.0158V18.7831C49.0737 18.711 49.1024 18.6418 49.1534 18.5908C49.2044 18.5398 49.2736 18.5112 49.3457 18.5112C49.4178 18.5112 49.487 18.5398 49.538 18.5908C49.589 18.6418 49.6177 18.711 49.6177 18.7831V20.0158ZM51.4864 19.0156C51.5282 19.069 51.5489 19.1358 51.5446 19.2035C51.5403 19.2711 51.5113 19.3348 51.4631 19.3825C51.4149 19.4302 51.3509 19.4584 51.2832 19.462C51.2155 19.4655 51.1489 19.444 51.096 19.4016L50.2186 18.5243C50.1932 18.499 50.173 18.469 50.1592 18.4358C50.1454 18.4027 50.1383 18.3672 50.1383 18.3313C50.1383 18.2954 50.1454 18.2599 50.1592 18.2268C50.173 18.1936 50.1932 18.1636 50.2186 18.1383C50.2703 18.0879 50.3395 18.0597 50.4117 18.0597C50.4838 18.0597 50.553 18.0879 50.6047 18.1383L51.4864 19.0156ZM52.1005 16.989C52.1727 16.989 52.2418 17.0176 52.2928 17.0686C52.3438 17.1196 52.3725 17.1888 52.3725 17.2609C52.3731 17.297 52.3665 17.3329 52.3531 17.3664C52.3397 17.3999 52.3197 17.4304 52.2944 17.4561C52.2691 17.4818 52.2389 17.5022 52.2056 17.5162C52.1723 17.5301 52.1366 17.5373 52.1005 17.5373H50.8679C50.8314 17.5379 50.7952 17.5312 50.7614 17.5175C50.7276 17.5038 50.6969 17.4835 50.6711 17.4577C50.6453 17.4319 50.625 17.4012 50.6113 17.3674C50.5977 17.3336 50.5909 17.2974 50.5915 17.2609C50.5915 17.2249 50.5987 17.1891 50.6126 17.1558C50.6266 17.1226 50.647 17.0924 50.6727 17.0671C50.6984 17.0417 50.7289 17.0218 50.7624 17.0084C50.7959 16.995 50.8318 16.9884 50.8679 16.989H52.1005ZM51.1004 15.1202C51.1533 15.0779 51.2199 15.0564 51.2876 15.0599C51.3553 15.0635 51.4193 15.0917 51.4675 15.1394C51.5157 15.187 51.5447 15.2508 51.549 15.3184C51.5533 15.386 51.5326 15.4529 51.4908 15.5063L50.6134 16.3836C50.5618 16.434 50.4926 16.4622 50.4204 16.4622C50.3483 16.4622 50.279 16.434 50.2274 16.3836C50.2019 16.3583 50.1817 16.3283 50.1679 16.2951C50.1541 16.262 50.1471 16.2265 50.1471 16.1906C50.1471 16.1547 50.1541 16.1192 50.1679 16.0861C50.1817 16.0529 50.2019 16.0229 50.2274 15.9976L51.1004 15.1202Z" fill="white"/>
<path fill-rule="evenodd" clip-rule="evenodd" d="M61.8301 67.4533H63.383C63.5203 67.4533 63.652 67.5079 63.749 67.6049C63.8461 67.702 63.9006 67.8337 63.9006 67.971V69.5238C63.9006 69.6611 63.8461 69.7928 63.749 69.8899C63.652 69.9869 63.5203 70.0415 63.383 70.0415H61.8301C61.6928 70.0415 61.5612 69.9869 61.4641 69.8899C61.367 69.7928 61.3125 69.6611 61.3125 69.5238V67.949C61.3125 67.8117 61.367 67.6801 61.4641 67.583C61.5612 67.4859 61.6928 67.4314 61.8301 67.4314V67.4533Z" fill="#F1EFFD"/>
<path fill-rule="evenodd" clip-rule="evenodd" d="M67.1292 67.4533H68.6777C68.815 67.4533 68.9466 67.5079 69.0437 67.6049C69.1408 67.702 69.1953 67.8337 69.1953 67.971V69.5238C69.1953 69.6611 69.1408 69.7928 69.0437 69.8899C68.9466 69.9869 68.815 70.0415 68.6777 70.0415H67.1292C66.9919 70.0415 66.8603 69.9869 66.7632 69.8899C66.6661 69.7928 66.6116 69.6611 66.6116 69.5238V67.949C66.6116 67.8117 66.6661 67.6801 66.7632 67.583C66.8603 67.4859 66.9919 67.4314 67.1292 67.4314V67.4533Z" fill="#F1EFFD"/>
<path fill-rule="evenodd" clip-rule="evenodd" d="M72.4195 67.4533H73.9724C74.1097 67.4533 74.2413 67.5079 74.3384 67.6049C74.4355 67.702 74.49 67.8337 74.49 67.971V69.5238C74.49 69.6611 74.4355 69.7928 74.3384 69.8899C74.2413 69.9869 74.1097 70.0415 73.9724 70.0415H72.4195C72.2822 70.0415 72.1505 69.9869 72.0535 69.8899C71.9564 69.7928 71.9019 69.6611 71.9019 69.5238V67.949C71.9019 67.8117 71.9564 67.6801 72.0535 67.583C72.1505 67.4859 72.2822 67.4314 72.4195 67.4314V67.4533Z" fill="#F1EFFD"/>
<path fill-rule="evenodd" clip-rule="evenodd" d="M77.7144 67.4533H79.2629C79.3309 67.4533 79.3982 67.4667 79.461 67.4927C79.5238 67.5187 79.5809 67.5569 79.6289 67.6049C79.677 67.653 79.7151 67.7101 79.7411 67.7729C79.7672 67.8357 79.7805 67.903 79.7805 67.971V69.5238C79.7805 69.5918 79.7672 69.6591 79.7411 69.7219C79.7151 69.7847 79.677 69.8418 79.6289 69.8899C79.5809 69.9379 79.5238 69.9761 79.461 70.0021C79.3982 70.0281 79.3309 70.0415 79.2629 70.0415H77.7144C77.5771 70.0415 77.4455 69.9869 77.3484 69.8899C77.2513 69.7928 77.1968 69.6611 77.1968 69.5238V67.949C77.1968 67.8117 77.2513 67.6801 77.3484 67.583C77.4455 67.4859 77.5771 67.4314 77.7144 67.4314V67.4533Z" fill="#F1EFFD"/>
<path fill-rule="evenodd" clip-rule="evenodd" d="M183.71 8.16303V162.636H178.354V5.53979C180.232 6.21355 182.029 7.09644 183.71 8.17181V8.16303Z" fill="#2C7653"/>
<path fill-rule="evenodd" clip-rule="evenodd" d="M190.33 14.1112V162.636H184.969V9.01392C186.98 10.461 188.783 12.1759 190.33 14.1112Z" fill="#2C7653"/>
<path fill-rule="evenodd" clip-rule="evenodd" d="M196.949 35.4481V162.636H191.588V15.822C194.574 20.2228 196.168 25.419 196.164 30.7368C196.163 32.3413 196.428 33.9348 196.949 35.4525V35.4481Z" fill="#2C7653"/>
<path fill-rule="evenodd" clip-rule="evenodd" d="M203.569 43.4495V79.859C202.33 80.4043 201.277 81.2972 200.537 82.4294C199.796 83.5616 199.4 84.8844 199.397 86.2373C199.4 87.5902 199.796 88.913 200.537 90.0452C201.277 91.1774 202.33 92.0703 203.569 92.6155V162.636H198.208V38.168C199.513 40.3538 201.359 42.1666 203.569 43.432V43.4495Z" fill="#2C7653"/>
<path fill-rule="evenodd" clip-rule="evenodd" d="M210.184 45.3664V79.2579H206.358C205.842 79.2585 205.327 79.3173 204.823 79.4334V44.0898C206.513 44.8507 208.332 45.2824 210.184 45.362V45.3664ZM210.184 93.1813V162.623H204.823V93.019C205.327 93.1334 205.842 93.1908 206.358 93.19L210.184 93.1813Z" fill="#2C7653"/>
<path fill-rule="evenodd" clip-rule="evenodd" d="M138.356 150.235H139.909C140.046 150.235 140.178 150.289 140.275 150.386C140.372 150.483 140.427 150.615 140.427 150.752V152.301C140.427 152.438 140.372 152.57 140.275 152.667C140.178 152.764 140.046 152.818 139.909 152.818H138.356C138.219 152.818 138.087 152.764 137.99 152.667C137.893 152.57 137.838 152.438 137.838 152.301V150.752C137.838 150.615 137.893 150.483 137.99 150.386C138.087 150.289 138.219 150.235 138.356 150.235Z" fill="#F1EFFD"/>
<path fill-rule="evenodd" clip-rule="evenodd" d="M143.651 150.235H145.199C145.267 150.234 145.335 150.247 145.398 150.273C145.461 150.299 145.518 150.337 145.567 150.385C145.615 150.433 145.653 150.49 145.679 150.553C145.704 150.617 145.717 150.684 145.717 150.752V152.301C145.717 152.369 145.704 152.436 145.679 152.5C145.653 152.563 145.615 152.62 145.567 152.668C145.518 152.716 145.461 152.754 145.398 152.78C145.335 152.806 145.267 152.819 145.199 152.818H143.651C143.583 152.819 143.515 152.806 143.452 152.78C143.389 152.754 143.332 152.716 143.283 152.668C143.235 152.62 143.197 152.563 143.171 152.5C143.145 152.436 143.132 152.369 143.133 152.301V150.752C143.132 150.684 143.145 150.617 143.171 150.553C143.197 150.49 143.235 150.433 143.283 150.385C143.332 150.337 143.389 150.299 143.452 150.273C143.515 150.247 143.583 150.234 143.651 150.235Z" fill="#F1EFFD"/>
<path fill-rule="evenodd" clip-rule="evenodd" d="M148.945 150.235H150.498C150.636 150.235 150.767 150.289 150.864 150.386C150.961 150.483 151.016 150.615 151.016 150.752V152.301C151.016 152.438 150.961 152.57 150.864 152.667C150.767 152.764 150.636 152.818 150.498 152.818H148.945C148.808 152.818 148.676 152.764 148.579 152.667C148.482 152.57 148.428 152.438 148.428 152.301V150.752C148.428 150.615 148.482 150.483 148.579 150.386C148.676 150.289 148.808 150.235 148.945 150.235Z" fill="#F1EFFD"/>
<path fill-rule="evenodd" clip-rule="evenodd" d="M154.24 150.235H155.789C155.857 150.234 155.924 150.247 155.987 150.273C156.05 150.299 156.108 150.337 156.156 150.385C156.204 150.433 156.242 150.49 156.268 150.553C156.294 150.617 156.307 150.684 156.306 150.752V152.301C156.307 152.369 156.294 152.436 156.268 152.5C156.242 152.563 156.204 152.62 156.156 152.668C156.108 152.716 156.05 152.754 155.987 152.78C155.924 152.806 155.857 152.819 155.789 152.818H154.24C154.172 152.819 154.104 152.806 154.041 152.78C153.978 152.754 153.921 152.716 153.873 152.668C153.825 152.62 153.786 152.563 153.761 152.5C153.735 152.436 153.722 152.369 153.722 152.301V150.752C153.722 150.684 153.735 150.617 153.761 150.553C153.786 150.49 153.825 150.433 153.873 150.385C153.921 150.337 153.978 150.299 154.041 150.273C154.104 150.247 154.172 150.234 154.24 150.235Z" fill="#F1EFFD"/>
<path fill-rule="evenodd" clip-rule="evenodd" d="M147.239 9.67651H148.792C148.86 9.67651 148.927 9.6899 148.99 9.71592C149.053 9.74193 149.11 9.78006 149.158 9.82812C149.206 9.87619 149.244 9.93325 149.27 9.99605C149.296 10.0589 149.309 10.1262 149.309 10.1941V11.7426C149.304 11.8769 149.246 12.0036 149.149 12.0961C149.051 12.1886 148.922 12.2396 148.787 12.2383H147.234C147.166 12.2383 147.099 12.2249 147.036 12.1989C146.974 12.1729 146.916 12.1348 146.868 12.0867C146.82 12.0387 146.782 11.9816 146.756 11.9188C146.73 11.856 146.717 11.7887 146.717 11.7207V10.1941C146.717 10.1262 146.73 10.0589 146.756 9.99605C146.782 9.93325 146.82 9.87619 146.868 9.82812C146.916 9.78006 146.974 9.74193 147.036 9.71592C147.099 9.6899 147.166 9.67651 147.234 9.67651H147.239Z" fill="#F1EFFD"/>
<path fill-rule="evenodd" clip-rule="evenodd" d="M152.534 9.67653H154.095C154.163 9.67653 154.231 9.68992 154.294 9.71593C154.356 9.74195 154.413 9.78008 154.461 9.82814C154.51 9.87621 154.548 9.93327 154.574 9.99607C154.6 10.0589 154.613 10.1262 154.613 10.1942V11.7427C154.607 11.8761 154.55 12.0022 154.454 12.0946C154.357 12.187 154.229 12.2385 154.095 12.2384H152.547C152.479 12.2389 152.411 12.226 152.348 12.2001C152.285 12.1743 152.228 12.1362 152.18 12.088C152.131 12.0399 152.093 11.9826 152.068 11.9195C152.042 11.8564 152.029 11.7889 152.029 11.7207V10.1942C152.029 10.126 152.042 10.0584 152.068 9.99538C152.093 9.93232 152.131 9.87502 152.18 9.82684C152.228 9.77865 152.285 9.74055 152.348 9.71474C152.411 9.68894 152.479 9.67595 152.547 9.67653H152.534Z" fill="#F1EFFD"/>
<path fill-rule="evenodd" clip-rule="evenodd" d="M157.828 9.67653H159.359C159.428 9.67595 159.495 9.68891 159.559 9.71467C159.622 9.74042 159.68 9.77846 159.728 9.82658C159.777 9.87471 159.815 9.93196 159.842 9.99505C159.868 10.0581 159.881 10.1258 159.881 10.1942V11.7427C159.876 11.8769 159.818 12.0036 159.721 12.0961C159.623 12.1886 159.494 12.2396 159.359 12.2384H157.811C157.743 12.2384 157.676 12.225 157.613 12.199C157.55 12.1729 157.493 12.1348 157.445 12.0867C157.397 12.0387 157.359 11.9816 157.333 11.9188C157.307 11.856 157.293 11.7887 157.293 11.7207V10.1942C157.293 10.1262 157.307 10.0589 157.333 9.99607C157.359 9.93327 157.397 9.87621 157.445 9.82814C157.493 9.78007 157.55 9.74195 157.613 9.71593C157.676 9.68992 157.743 9.67653 157.811 9.67653H157.828Z" fill="#F1EFFD"/>
<path fill-rule="evenodd" clip-rule="evenodd" d="M163.119 9.67651H164.672C164.74 9.67651 164.807 9.6899 164.87 9.71592C164.932 9.74193 164.99 9.78006 165.038 9.82812C165.086 9.87619 165.124 9.93325 165.15 9.99605C165.176 10.0589 165.189 10.1262 165.189 10.1941V11.7426C165.184 11.8761 165.127 12.0022 165.03 12.0946C164.934 12.1869 164.805 12.2385 164.672 12.2383H163.119C163.051 12.2383 162.983 12.2249 162.921 12.1989C162.858 12.1729 162.801 12.1348 162.753 12.0867C162.705 12.0387 162.666 11.9816 162.64 11.9188C162.614 11.856 162.601 11.7887 162.601 11.7207V10.1941C162.601 10.1262 162.614 10.0589 162.64 9.99605C162.666 9.93325 162.705 9.87619 162.753 9.82812C162.801 9.78006 162.858 9.74193 162.921 9.71592C162.983 9.6899 163.051 9.67651 163.119 9.67651Z" fill="#F1EFFD"/>
<path fill-rule="evenodd" clip-rule="evenodd" d="M221.563 105.188H223.111C223.179 105.188 223.246 105.201 223.309 105.227C223.372 105.253 223.429 105.291 223.477 105.339C223.525 105.387 223.563 105.444 223.589 105.507C223.615 105.57 223.629 105.637 223.629 105.705V107.254C223.629 107.391 223.574 107.523 223.477 107.62C223.38 107.717 223.248 107.772 223.111 107.772H221.563C221.425 107.772 221.294 107.717 221.197 107.62C221.099 107.523 221.045 107.391 221.045 107.254V105.705C221.044 105.637 221.057 105.57 221.083 105.507C221.109 105.444 221.147 105.386 221.195 105.338C221.243 105.29 221.301 105.252 221.364 105.226C221.427 105.2 221.494 105.187 221.563 105.188Z" fill="#F1EFFD"/>
<path fill-rule="evenodd" clip-rule="evenodd" d="M226.853 105.188H228.406C228.474 105.188 228.541 105.201 228.604 105.227C228.667 105.253 228.724 105.291 228.772 105.339C228.82 105.387 228.858 105.444 228.884 105.507C228.91 105.57 228.924 105.637 228.924 105.705V107.254C228.922 107.391 228.868 107.522 228.771 107.619C228.674 107.715 228.543 107.77 228.406 107.771H226.853C226.716 107.771 226.584 107.717 226.487 107.62C226.39 107.523 226.335 107.391 226.335 107.254V105.705C226.335 105.568 226.39 105.436 226.487 105.339C226.584 105.242 226.716 105.188 226.853 105.188Z" fill="#F1EFFD"/>
<path fill-rule="evenodd" clip-rule="evenodd" d="M232.148 105.188H233.701C233.769 105.188 233.836 105.201 233.899 105.227C233.962 105.253 234.019 105.291 234.067 105.339C234.115 105.387 234.153 105.444 234.179 105.507C234.205 105.57 234.218 105.637 234.218 105.705V107.254C234.218 107.391 234.164 107.523 234.067 107.62C233.97 107.717 233.838 107.771 233.701 107.771H232.148C232.01 107.771 231.879 107.717 231.782 107.62C231.685 107.523 231.63 107.391 231.63 107.254V105.705C231.63 105.637 231.644 105.57 231.67 105.507C231.696 105.444 231.734 105.387 231.782 105.339C231.83 105.291 231.887 105.253 231.95 105.227C232.012 105.201 232.08 105.188 232.148 105.188Z" fill="#F1EFFD"/>
<path fill-rule="evenodd" clip-rule="evenodd" d="M237.443 105.188H238.991C239.059 105.187 239.127 105.2 239.19 105.226C239.253 105.252 239.31 105.29 239.359 105.338C239.407 105.386 239.445 105.444 239.471 105.507C239.496 105.57 239.509 105.637 239.509 105.705V107.254C239.509 107.391 239.454 107.523 239.357 107.62C239.26 107.717 239.128 107.772 238.991 107.772H237.443C237.306 107.77 237.175 107.715 237.078 107.619C236.981 107.522 236.926 107.391 236.925 107.254V105.705C236.925 105.568 236.98 105.436 237.077 105.339C237.174 105.242 237.305 105.188 237.443 105.188Z" fill="#F1EFFD"/>
<path fill-rule="evenodd" clip-rule="evenodd" d="M41.0286 158.618C41.0479 154.984 41.4522 151.362 42.2349 147.813L42.2568 147.721C42.2963 147.554 42.4279 147.239 42.7569 147.331C43.1956 147.449 46.8409 149.498 50.2406 152.959C53.6403 156.42 53.5877 151.204 50.631 149.164C47.6744 147.125 44.6651 146.252 43.7615 145.471C43.5058 145.276 43.3033 145.02 43.173 144.726C43.0426 144.433 42.9885 144.111 43.0157 143.791C43.722 139.843 44.2484 135.759 44.6169 131.754C44.6169 131.754 44.788 130.876 45.617 131.903C46.4461 132.929 49.6659 136.496 52.1707 136.728C54.6755 136.961 52.3813 132.995 48.8456 131.047C45.31 129.1 44.8757 128.687 44.8976 128.214C45.1257 125.06 45.2573 121.976 45.3056 119.037C45.3056 119.037 45.4503 118.51 45.9153 118.892C46.3803 119.274 49.8984 123.279 51.7759 122.875C53.6535 122.471 51.8286 119.019 48.8369 117.817C45.8451 116.615 45.3275 116.255 45.3275 115.808C45.2968 107.109 44.5291 100.104 43.3711 97.1251C42.1691 94.0193 49.8063 101.042 56.8645 112.5C57.4699 113.544 57.4304 114.141 57.04 115.409C56.6013 116.764 56.1626 119.822 57.2637 119.111C58.3648 118.401 58.5227 115.712 58.6104 115.663C58.6316 115.649 58.6575 115.643 58.6827 115.647C58.708 115.651 58.7307 115.665 58.7464 115.685C59.9045 117.734 61.0143 119.892 62.0452 122.134C63.1068 124.652 61.6855 126.367 59.7115 128.823C57.6629 131.368 58.0314 134.087 60.2072 132.938C62.383 131.789 63.3963 126.512 63.5805 126.358C63.7648 126.204 63.8657 126.419 63.8876 126.459C65.3538 130.183 66.4542 134.041 67.1732 137.978C67.318 139.939 65.7212 141.562 64.0455 144.207C62.3698 146.853 63.6551 148.489 64.9887 148.12C66.3222 147.752 67.2171 144.501 67.511 144.291C67.8049 144.08 67.8619 144.26 67.8707 144.291C68.0484 148.121 67.6311 151.955 66.6337 155.657C65.8579 158.529 64.9131 161.353 63.8042 164.114H46.5251L41.0286 158.618Z" fill="#187449"/>
<path fill-rule="evenodd" clip-rule="evenodd" d="M61.0977 164.114C58.8297 133.846 51.0565 107.635 51.0083 107.504C50.9571 107.329 50.8387 107.182 50.6791 107.095C50.5195 107.008 50.3318 106.988 50.1573 107.039C49.9828 107.09 49.8357 107.208 49.7485 107.368C49.6613 107.528 49.6411 107.715 49.6923 107.89C49.7318 108.021 57.4611 134.078 59.729 164.118L61.0977 164.114Z" fill="white"/>
<path fill-rule="evenodd" clip-rule="evenodd" d="M75.372 122.498C88.4794 114.733 92.1028 130.889 89.4445 138.211C87.4748 143.628 80.4912 155.494 75.5694 164.114H57.2856C59.6588 146.002 65.7256 128.214 75.372 122.498Z" fill="#FFBF43"/>
<path fill-rule="evenodd" clip-rule="evenodd" d="M65.2476 164.114C71.9197 142.961 82.1539 125.415 82.1889 125.331C82.2795 125.199 82.4104 125.099 82.5621 125.047C82.7138 124.995 82.8783 124.993 83.0312 125.042C83.1012 125.054 83.167 125.084 83.2231 125.127C83.2792 125.171 83.3238 125.228 83.3532 125.293C83.3825 125.357 83.3957 125.428 83.3916 125.499C83.3875 125.57 83.3661 125.639 83.3295 125.7C83.2768 125.792 73.1524 143.15 66.5109 164.114H65.2476Z" fill="white"/>
<path fill-rule="evenodd" clip-rule="evenodd" d="M19.2002 113.237C23.2403 97.9585 37.4883 106.324 43.6077 119.379C47.06 126.748 53.0435 146.199 59.7771 164.123H42.6734L37.5936 161.272C25.7495 139.163 17.5815 119.348 19.1958 113.246L19.2002 113.237Z" fill="#229B62"/>
<path fill-rule="evenodd" clip-rule="evenodd" d="M46.841 160.443C38.7382 144.863 32.1074 128.562 27.0351 111.75C26.9983 111.592 27.0235 111.425 27.1056 111.285C27.1878 111.145 27.3206 111.041 27.4767 110.996C27.6328 110.95 27.8005 110.966 27.9451 111.04C28.0898 111.115 28.2006 111.242 28.2546 111.395C28.2941 111.527 35.7383 137.816 49.9424 163.553L46.841 160.443Z" fill="white"/>
<path d="M238.616 115.817H222.359V120.743H238.616V115.817Z" fill="#BBBBF6"/>
<path d="M231.506 121.73H215.244V126.656H231.506V121.73Z" fill="#BBBBF6"/>
<path fill-rule="evenodd" clip-rule="evenodd" d="M232.282 121.73H242.569C242.863 123.357 243.041 125.004 243.1 126.656H232.282V121.73Z" fill="#BBBBF6"/>
<path d="M238.616 127.639H222.359V132.565H238.616V127.639Z" fill="#BBBBF6"/>
<path fill-rule="evenodd" clip-rule="evenodd" d="M239.393 127.639H243.117C243.117 127.731 243.117 127.819 243.117 127.911C243.118 129.469 243.014 131.025 242.805 132.569H239.388L239.393 127.639Z" fill="#BBBBF6"/>
<path fill-rule="evenodd" clip-rule="evenodd" d="M232.282 133.552H242.661C242.386 135.221 241.988 136.867 241.472 138.478H232.282V133.552Z" fill="#BBBBF6"/>
<path d="M205.014 138.781C205.023 138.714 205.055 138.653 205.106 138.608C205.156 138.564 205.221 138.539 205.288 138.539C205.356 138.539 205.421 138.564 205.471 138.608C205.522 138.653 205.554 138.714 205.563 138.781V140.014C205.554 140.08 205.522 140.142 205.471 140.186C205.421 140.231 205.356 140.255 205.288 140.255C205.221 140.255 205.156 140.231 205.106 140.186C205.055 140.142 205.023 140.08 205.014 140.014V138.781ZM203.154 139.781C203.129 139.756 203.109 139.726 203.095 139.693C203.081 139.659 203.074 139.624 203.074 139.588C203.074 139.552 203.081 139.517 203.095 139.484C203.109 139.45 203.129 139.42 203.154 139.395C203.206 139.345 203.275 139.316 203.347 139.316C203.419 139.316 203.489 139.345 203.54 139.395L204.418 140.272C204.45 140.296 204.477 140.326 204.496 140.361C204.516 140.396 204.528 140.434 204.531 140.474C204.534 140.514 204.528 140.554 204.514 140.592C204.501 140.629 204.479 140.663 204.451 140.691C204.422 140.72 204.388 140.741 204.351 140.755C204.313 140.769 204.273 140.775 204.233 140.771C204.194 140.768 204.155 140.757 204.12 140.737C204.085 140.718 204.055 140.691 204.032 140.658L203.154 139.781ZM202.54 141.812C202.501 141.817 202.462 141.814 202.424 141.802C202.387 141.791 202.352 141.771 202.323 141.745C202.293 141.719 202.27 141.687 202.254 141.652C202.237 141.616 202.229 141.577 202.229 141.538C202.229 141.499 202.237 141.46 202.254 141.424C202.27 141.388 202.293 141.357 202.323 141.331C202.352 141.305 202.387 141.285 202.424 141.274C202.462 141.262 202.501 141.259 202.54 141.264H203.773C203.839 141.272 203.901 141.305 203.945 141.355C203.99 141.406 204.014 141.471 204.014 141.538C204.014 141.605 203.99 141.67 203.945 141.721C203.901 141.771 203.839 141.804 203.773 141.812H202.54ZM203.54 143.676C203.517 143.709 203.487 143.736 203.452 143.755C203.417 143.775 203.378 143.786 203.338 143.79C203.299 143.793 203.259 143.787 203.221 143.773C203.184 143.759 203.15 143.738 203.121 143.709C203.093 143.681 203.071 143.647 203.057 143.61C203.044 143.572 203.038 143.532 203.041 143.492C203.044 143.452 203.056 143.414 203.076 143.379C203.095 143.344 203.122 143.314 203.154 143.29L204.032 142.413C204.055 142.381 204.085 142.354 204.12 142.334C204.155 142.315 204.194 142.303 204.233 142.3C204.273 142.297 204.313 142.302 204.351 142.316C204.388 142.33 204.422 142.352 204.451 142.38C204.479 142.408 204.501 142.442 204.514 142.48C204.528 142.517 204.534 142.557 204.531 142.597C204.528 142.637 204.516 142.676 204.496 142.711C204.477 142.745 204.45 142.776 204.418 142.799L203.54 143.676ZM205.567 144.291C205.558 144.357 205.526 144.419 205.475 144.463C205.425 144.508 205.36 144.532 205.293 144.532C205.225 144.532 205.161 144.508 205.11 144.463C205.06 144.419 205.027 144.357 205.019 144.291V143.058C205.027 142.991 205.06 142.93 205.11 142.885C205.161 142.841 205.225 142.816 205.293 142.816C205.36 142.816 205.425 142.841 205.475 142.885C205.526 142.93 205.558 142.991 205.567 143.058V144.291ZM207.431 143.286C207.457 143.311 207.477 143.341 207.491 143.375C207.505 143.408 207.512 143.443 207.512 143.479C207.512 143.515 207.505 143.55 207.491 143.584C207.477 143.617 207.457 143.647 207.431 143.672C207.406 143.698 207.376 143.719 207.343 143.733C207.31 143.747 207.274 143.754 207.238 143.754C207.202 143.754 207.167 143.747 207.133 143.733C207.1 143.719 207.07 143.698 207.045 143.672L206.168 142.795C206.117 142.744 206.088 142.674 206.088 142.602C206.088 142.529 206.117 142.46 206.168 142.409C206.219 142.358 206.289 142.329 206.361 142.329C206.433 142.329 206.503 142.358 206.554 142.409L207.431 143.286ZM208.045 141.259C208.112 141.268 208.174 141.3 208.218 141.351C208.262 141.401 208.287 141.466 208.287 141.534C208.287 141.601 208.262 141.666 208.218 141.716C208.174 141.767 208.112 141.799 208.045 141.808H206.813C206.746 141.799 206.685 141.767 206.64 141.716C206.596 141.666 206.571 141.601 206.571 141.534C206.571 141.466 206.596 141.401 206.64 141.351C206.685 141.3 206.746 141.268 206.813 141.259H208.045ZM207.045 139.391C207.096 139.339 207.166 139.311 207.238 139.311C207.311 139.311 207.38 139.339 207.431 139.391C207.482 139.442 207.511 139.511 207.511 139.584C207.511 139.656 207.482 139.725 207.431 139.777L206.554 140.654C206.503 140.705 206.433 140.734 206.361 140.734C206.289 140.734 206.219 140.705 206.168 140.654C206.117 140.603 206.088 140.533 206.088 140.461C206.088 140.389 206.117 140.319 206.168 140.268L207.045 139.391Z" fill="#8B77E6"/>
<path fill-rule="evenodd" clip-rule="evenodd" d="M234.344 113.693C238.125 125.976 239.537 132.64 241.568 138.158C242.6 134.84 243.124 131.385 243.121 127.911V110.298C243.121 78.2753 229.681 98.5638 234.348 113.693H234.344Z" fill="#187449"/>
<path fill-rule="evenodd" clip-rule="evenodd" d="M187.476 160.403C183.962 155.761 181.333 150.512 179.721 144.918C176.589 133.859 189.437 146.111 199.575 160.403H187.476Z" fill="#229B62"/>
<path fill-rule="evenodd" clip-rule="evenodd" d="M205.146 160.403C201.983 155.051 198.842 148.015 198.346 140.606C197.307 125.015 197.03 120.116 194.039 117.589C191.494 115.422 222.206 115.887 235.085 150.05C231.23 154.684 226.244 158.242 220.609 160.381L205.146 160.403Z" fill="#187449"/>
<path fill-rule="evenodd" clip-rule="evenodd" d="M198.439 117.045C210.068 127.621 219.214 143.264 225.917 157.841C225.597 158.03 225.272 158.214 224.947 158.389C218.069 143.4 208.629 127.327 196.574 116.865C197.127 116.891 197.759 116.953 198.447 117.045H198.439Z" fill="white"/>
<path fill-rule="evenodd" clip-rule="evenodd" d="M231.431 99.9149C233.997 106.232 237.778 120.401 242.248 135.649C240.431 143.481 235.963 150.446 229.602 155.363C218.766 139.895 209.335 122.322 205.808 108.39C198.715 80.3503 220.78 73.665 231.426 99.9193L231.431 99.9149Z" fill="#229B62"/>
<path fill-rule="evenodd" clip-rule="evenodd" d="M235.844 149.103C220.846 122.875 213.858 92.0978 213.827 91.9662C213.802 91.8245 213.832 91.6785 213.911 91.5582C213.99 91.438 214.112 91.3527 214.252 91.3201C214.393 91.2874 214.54 91.3098 214.664 91.3827C214.788 91.4556 214.88 91.5734 214.919 91.7118C214.95 91.8434 221.842 122.182 236.568 148.138C236.331 148.462 236.09 148.787 235.844 149.103Z" fill="white"/>
<path fill-rule="evenodd" clip-rule="evenodd" d="M221.355 160.109C220.754 157.324 219.836 154.617 218.617 152.042C213.621 141.549 201.123 137.465 197.561 139.062C194.657 140.378 188.788 148.462 193.174 160.403H220.613C220.863 160.311 221.109 160.214 221.35 160.113L221.355 160.109Z" fill="#FFBF43"/>
<path fill-rule="evenodd" clip-rule="evenodd" d="M214.121 160.403C214.757 158.688 216.073 154.924 216.244 152.647C216.248 152.605 216.243 152.563 216.23 152.523C216.217 152.483 216.197 152.446 216.169 152.414C216.142 152.383 216.108 152.357 216.071 152.338C216.033 152.319 215.992 152.308 215.95 152.305C215.866 152.299 215.783 152.327 215.719 152.382C215.655 152.437 215.615 152.515 215.608 152.599C215.45 154.718 214.244 158.223 213.595 159.991C212.013 156.883 210.206 153.897 208.186 151.055C208.862 148.554 209.201 145.974 209.195 143.383C209.193 143.341 209.184 143.299 209.166 143.261C209.149 143.223 209.124 143.188 209.093 143.159C209.063 143.131 209.027 143.108 208.987 143.094C208.948 143.079 208.906 143.072 208.864 143.073C208.822 143.075 208.78 143.084 208.742 143.102C208.704 143.119 208.669 143.144 208.641 143.175C208.612 143.206 208.589 143.242 208.575 143.281C208.56 143.321 208.553 143.362 208.554 143.405C208.566 145.756 208.279 148.1 207.699 150.379C205.054 146.745 202.074 143.367 198.798 140.29C198.675 140.174 198.511 140.111 198.341 140.116C198.172 140.121 198.011 140.193 197.895 140.316C197.778 140.44 197.716 140.604 197.721 140.774C197.726 140.943 197.798 141.104 197.921 141.22C199.632 142.825 201.198 144.457 202.641 146.098C200.916 145.765 199.154 145.667 197.404 145.808C197.32 145.818 197.243 145.861 197.19 145.926C197.137 145.992 197.111 146.075 197.118 146.159C197.128 146.243 197.171 146.319 197.236 146.372C197.302 146.424 197.386 146.449 197.469 146.44C199.432 146.292 201.406 146.44 203.326 146.879C205.424 149.331 207.348 151.927 209.085 154.648C206.804 154.428 201.189 154.06 195.759 155.06C195.715 155.065 195.672 155.078 195.634 155.1C195.595 155.122 195.562 155.152 195.535 155.187C195.509 155.223 195.49 155.263 195.48 155.307C195.47 155.35 195.47 155.394 195.478 155.438C195.486 155.481 195.503 155.523 195.528 155.559C195.553 155.596 195.585 155.627 195.623 155.65C195.66 155.673 195.702 155.689 195.746 155.695C195.79 155.702 195.834 155.699 195.877 155.687C201.689 154.617 207.721 155.139 209.52 155.336C210.59 157.052 211.537 158.74 212.38 160.385L214.121 160.403Z" fill="white"/>
<path fill-rule="evenodd" clip-rule="evenodd" d="M214.114 26.7141H215.869C216.025 26.7141 216.174 26.776 216.285 26.8863C216.395 26.9965 216.457 27.146 216.457 27.3019V29.0566C216.457 29.2125 216.395 29.362 216.285 29.4723C216.174 29.5825 216.025 29.6444 215.869 29.6444H214.114C213.958 29.6444 213.809 29.5825 213.699 29.4723C213.588 29.362 213.526 29.2125 213.526 29.0566V27.3019C213.526 27.146 213.588 26.9965 213.699 26.8863C213.809 26.776 213.958 26.7141 214.114 26.7141Z" fill="#29B473"/>
<path fill-rule="evenodd" clip-rule="evenodd" d="M220.132 26.7141H221.887C221.964 26.7141 222.041 26.7293 222.112 26.7589C222.183 26.7884 222.248 26.8317 222.303 26.8863C222.357 26.9409 222.401 27.0057 222.43 27.077C222.46 27.1483 222.475 27.2247 222.475 27.3019V29.0566C222.475 29.1338 222.46 29.2102 222.43 29.2816C222.401 29.3529 222.357 29.4177 222.303 29.4723C222.248 29.5268 222.183 29.5701 222.112 29.5997C222.041 29.6292 221.964 29.6444 221.887 29.6444H220.132C220.055 29.6444 219.979 29.6292 219.908 29.5997C219.836 29.5701 219.771 29.5268 219.717 29.4723C219.662 29.4177 219.619 29.3529 219.589 29.2816C219.56 29.2102 219.545 29.1338 219.545 29.0566V27.3019C219.545 27.2247 219.56 27.1483 219.589 27.077C219.619 27.0057 219.662 26.9409 219.717 26.8863C219.771 26.8317 219.836 26.7884 219.908 26.7589C219.979 26.7293 220.055 26.7141 220.132 26.7141Z" fill="#29B473"/>
<path fill-rule="evenodd" clip-rule="evenodd" d="M226.147 26.7141H227.902C228.057 26.7141 228.207 26.776 228.317 26.8863C228.427 26.9965 228.489 27.146 228.489 27.3019V29.0566C228.489 29.2125 228.427 29.362 228.317 29.4723C228.207 29.5825 228.057 29.6444 227.902 29.6444H226.147C225.992 29.6433 225.843 29.5808 225.734 29.4707C225.625 29.3606 225.563 29.2117 225.563 29.0566V27.3019C225.563 27.1468 225.625 26.9979 225.734 26.8878C225.843 26.7777 225.992 26.7153 226.147 26.7141Z" fill="#29B473"/>
<path fill-rule="evenodd" clip-rule="evenodd" d="M232.178 26.7141H233.933C234.088 26.7153 234.237 26.7777 234.346 26.8878C234.455 26.9979 234.517 27.1468 234.517 27.3019V29.0566C234.517 29.2117 234.455 29.3606 234.346 29.4707C234.237 29.5808 234.088 29.6433 233.933 29.6444H232.178C232.023 29.6444 231.873 29.5825 231.763 29.4723C231.653 29.362 231.591 29.2125 231.591 29.0566V27.3019C231.591 27.146 231.653 26.9965 231.763 26.8863C231.873 26.776 232.023 26.7141 232.178 26.7141Z" fill="#29B473"/>
<path d="M239.406 72.4731C239.406 72.3899 239.439 72.3101 239.497 72.2513C239.556 72.1925 239.636 72.1594 239.719 72.1594C239.802 72.1594 239.882 72.1925 239.941 72.2513C240 72.3101 240.033 72.3899 240.033 72.4731V73.8724C240.033 73.9556 240 74.0354 239.941 74.0942C239.882 74.153 239.802 74.1861 239.719 74.1861C239.636 74.1861 239.556 74.153 239.497 74.0942C239.439 74.0354 239.406 73.9556 239.406 73.8724V72.4731ZM237.287 73.6005C237.229 73.5421 237.196 73.4633 237.196 73.3811C237.196 73.299 237.229 73.2201 237.287 73.1618C237.315 73.1326 237.35 73.1094 237.387 73.0936C237.425 73.0778 237.465 73.0696 237.506 73.0696C237.547 73.0696 237.587 73.0778 237.625 73.0936C237.663 73.1094 237.697 73.1326 237.725 73.1618L238.717 74.1532C238.767 74.2129 238.792 74.289 238.789 74.3667C238.785 74.4444 238.753 74.5179 238.698 74.5729C238.643 74.6278 238.569 74.6603 238.492 74.6638C238.414 74.6673 238.338 74.6416 238.278 74.5918L237.287 73.6005ZM236.589 75.9035C236.507 75.9035 236.427 75.8706 236.369 75.8122C236.311 75.7538 236.278 75.6746 236.278 75.592C236.278 75.5094 236.311 75.4302 236.369 75.3718C236.427 75.3134 236.507 75.2806 236.589 75.2806H237.993C238.076 75.2806 238.155 75.3134 238.213 75.3718C238.272 75.4302 238.304 75.5094 238.304 75.592C238.304 75.6746 238.272 75.7538 238.213 75.8122C238.155 75.8706 238.076 75.9035 237.993 75.9035H236.589ZM237.725 78.0266C237.698 78.0598 237.663 78.0869 237.625 78.1062C237.586 78.1254 237.544 78.1363 237.5 78.1383C237.457 78.1402 237.414 78.1332 237.374 78.1175C237.333 78.1019 237.297 78.078 237.266 78.0474C237.235 78.0168 237.212 77.9801 237.196 77.9398C237.18 77.8995 237.173 77.8563 237.175 77.8131C237.177 77.7699 237.188 77.7275 237.207 77.6888C237.226 77.65 237.254 77.6157 237.287 77.588L238.278 76.5966C238.338 76.5468 238.414 76.5211 238.492 76.5246C238.569 76.5281 238.643 76.5606 238.698 76.6155C238.753 76.6705 238.785 76.744 238.789 76.8217C238.792 76.8994 238.767 76.9755 238.717 77.0352L237.725 78.0266ZM240.033 78.7241C240.033 78.8073 240 78.8871 239.941 78.9459C239.882 79.0047 239.802 79.0378 239.719 79.0378C239.636 79.0378 239.556 79.0047 239.497 78.9459C239.439 78.8871 239.406 78.8073 239.406 78.7241V77.3204C239.406 77.2372 239.439 77.1574 239.497 77.0986C239.556 77.0398 239.636 77.0067 239.719 77.0067C239.802 77.0067 239.882 77.0398 239.941 77.0986C240 77.1574 240.033 77.2372 240.033 77.3204V78.7241ZM242.152 77.588C242.185 77.6157 242.212 77.65 242.231 77.6888C242.25 77.7275 242.261 77.7699 242.263 77.8131C242.265 77.8563 242.258 77.8995 242.243 77.9398C242.227 77.9801 242.203 78.0168 242.172 78.0474C242.142 78.078 242.105 78.1019 242.065 78.1175C242.024 78.1332 241.981 78.1402 241.938 78.1383C241.895 78.1363 241.853 78.1254 241.814 78.1062C241.775 78.0869 241.741 78.0598 241.713 78.0266L240.722 77.0352C240.688 77.0075 240.661 76.9732 240.642 76.9344C240.623 76.8957 240.612 76.8533 240.61 76.8101C240.608 76.7669 240.615 76.7237 240.631 76.6834C240.646 76.643 240.67 76.6064 240.701 76.5758C240.731 76.5452 240.768 76.5213 240.808 76.5057C240.849 76.49 240.892 76.4829 240.935 76.4849C240.978 76.4868 241.021 76.4978 241.059 76.517C241.098 76.5362 241.133 76.5633 241.16 76.5966L242.152 77.588ZM242.849 75.2806C242.932 75.2806 243.011 75.3134 243.069 75.3718C243.128 75.4302 243.161 75.5094 243.161 75.592C243.161 75.6746 243.128 75.7538 243.069 75.8122C243.011 75.8706 242.932 75.9035 242.849 75.9035H241.45C241.367 75.9035 241.288 75.8706 241.23 75.8122C241.171 75.7538 241.138 75.6746 241.138 75.592C241.138 75.5094 241.171 75.4302 241.23 75.3718C241.288 75.3134 241.367 75.2806 241.45 75.2806H242.849ZM241.713 73.1618C241.742 73.1326 241.776 73.1094 241.813 73.0936C241.851 73.0778 241.891 73.0696 241.932 73.0696C241.973 73.0696 242.014 73.0778 242.051 73.0936C242.089 73.1094 242.123 73.1326 242.152 73.1618C242.208 73.2207 242.24 73.2993 242.24 73.3811C242.24 73.4629 242.208 73.5416 242.152 73.6005L241.16 74.5918C241.101 74.6416 241.024 74.6673 240.947 74.6638C240.869 74.6603 240.795 74.6278 240.741 74.5729C240.686 74.5179 240.653 74.4444 240.65 74.3667C240.646 74.289 240.672 74.2129 240.722 74.1532L241.713 73.1618Z" fill="#29B473"/>
<path d="M17.0203 79.1701C17.0203 79.0875 17.0531 79.0083 17.1115 78.9499C17.1699 78.8915 17.2491 78.8586 17.3317 78.8586C17.4143 78.8586 17.4936 78.8915 17.552 78.9499C17.6104 79.0083 17.6432 79.0875 17.6432 79.1701V80.5695C17.6432 80.6521 17.6104 80.7313 17.552 80.7897C17.4936 80.8481 17.4143 80.8809 17.3317 80.8809C17.2491 80.8809 17.1699 80.8481 17.1115 80.7897C17.0531 80.7313 17.0203 80.6521 17.0203 80.5695V79.1701ZM14.9015 80.3063C14.8723 80.2777 14.8492 80.2435 14.8333 80.2059C14.8175 80.1682 14.8093 80.1278 14.8093 80.0869C14.8093 80.0461 14.8175 80.0056 14.8333 79.968C14.8492 79.9303 14.8723 79.8962 14.9015 79.8676C14.9598 79.8097 15.0387 79.7773 15.1208 79.7773C15.203 79.7773 15.2818 79.8097 15.3402 79.8676L16.3272 80.859C16.377 80.9187 16.4026 80.9948 16.3991 81.0725C16.3956 81.1502 16.3632 81.2237 16.3082 81.2787C16.2532 81.3336 16.1797 81.3661 16.102 81.3696C16.0244 81.3731 15.9482 81.3474 15.8885 81.2976L14.9015 80.3063ZM14.204 82.6136C14.1208 82.6136 14.0411 82.5806 13.9822 82.5218C13.9234 82.463 13.8904 82.3832 13.8904 82.3C13.8904 82.2168 13.9234 82.137 13.9822 82.0782C14.0411 82.0194 14.1208 81.9864 14.204 81.9864H15.6034C15.6866 81.9864 15.7663 82.0194 15.8252 82.0782C15.884 82.137 15.917 82.2168 15.917 82.3C15.917 82.3832 15.884 82.463 15.8252 82.5218C15.7663 82.5806 15.6866 82.6136 15.6034 82.6136H14.204ZM15.3402 84.7324C15.2818 84.7903 15.203 84.8227 15.1208 84.8227C15.0387 84.8227 14.9598 84.7903 14.9015 84.7324C14.8723 84.7038 14.8492 84.6697 14.8333 84.632C14.8175 84.5944 14.8093 84.5539 14.8093 84.5131C14.8093 84.4722 14.8175 84.4318 14.8333 84.3941C14.8492 84.3565 14.8723 84.3223 14.9015 84.2937L15.8929 83.3024C15.9526 83.2526 16.0288 83.2269 16.1064 83.2304C16.1841 83.2339 16.2576 83.2664 16.3126 83.3213C16.3676 83.3763 16.4 83.4498 16.4035 83.5275C16.407 83.6052 16.3814 83.6813 16.3316 83.741L15.3402 84.7324ZM17.6432 85.4299C17.6432 85.5125 17.6104 85.5917 17.552 85.6501C17.4936 85.7085 17.4143 85.7414 17.3317 85.7414C17.2491 85.7414 17.1699 85.7085 17.1115 85.6501C17.0531 85.5917 17.0203 85.5125 17.0203 85.4299V84.0306C17.0203 83.9479 17.0531 83.8687 17.1115 83.8103C17.1699 83.7519 17.2491 83.7191 17.3317 83.7191C17.4143 83.7191 17.4936 83.7519 17.552 83.8103C17.6104 83.8687 17.6432 83.9479 17.6432 84.0306V85.4299ZM19.7663 84.2937C19.8161 84.3535 19.8418 84.4296 19.8383 84.5073C19.8348 84.5849 19.8024 84.6585 19.7474 84.7135C19.6924 84.7684 19.6189 84.8009 19.5412 84.8044C19.4635 84.8079 19.3874 84.7822 19.3277 84.7324L18.3363 83.741C18.3031 83.7133 18.276 83.679 18.2567 83.6402C18.2375 83.6015 18.2266 83.5591 18.2246 83.5159C18.2227 83.4727 18.2297 83.4295 18.2454 83.3892C18.261 83.3488 18.2849 83.3122 18.3155 83.2816C18.3461 83.251 18.3828 83.2271 18.4231 83.2115C18.4634 83.1958 18.5066 83.1887 18.5498 83.1907C18.593 83.1927 18.6354 83.2036 18.6742 83.2228C18.7129 83.242 18.7472 83.2691 18.775 83.3024L19.7663 84.2937ZM20.4638 81.9907C20.547 81.9907 20.6268 82.0238 20.6856 82.0826C20.7444 82.1414 20.7775 82.2212 20.7775 82.3044C20.7775 82.3876 20.7444 82.4673 20.6856 82.5262C20.6268 82.585 20.547 82.618 20.4638 82.618H19.0645C18.9813 82.618 18.9015 82.585 18.8427 82.5262C18.7839 82.4673 18.7508 82.3876 18.7508 82.3044C18.7508 82.2212 18.7839 82.1414 18.8427 82.0826C18.9015 82.0238 18.9813 81.9907 19.0645 81.9907H20.4638ZM19.3277 79.872C19.3554 79.8387 19.3897 79.8116 19.4285 79.7924C19.4673 79.7732 19.5096 79.7623 19.5528 79.7603C19.596 79.7584 19.6392 79.7654 19.6795 79.7811C19.7199 79.7967 19.7565 79.8206 19.7871 79.8512C19.8177 79.8818 19.8416 79.9184 19.8572 79.9588C19.8729 79.9991 19.88 80.0423 19.878 80.0855C19.8761 80.1287 19.8651 80.1711 19.8459 80.2098C19.8267 80.2486 19.7996 80.2829 19.7663 80.3106L18.775 81.302C18.7472 81.3353 18.7129 81.3624 18.6742 81.3816C18.6354 81.4008 18.593 81.4117 18.5498 81.4137C18.5066 81.4156 18.4634 81.4086 18.4231 81.3929C18.3828 81.3773 18.3461 81.3534 18.3155 81.3228C18.2849 81.2922 18.261 81.2556 18.2454 81.2152C18.2297 81.1749 18.2227 81.1317 18.2246 81.0885C18.2266 81.0453 18.2375 81.0029 18.2567 80.9642C18.276 80.9254 18.3031 80.8911 18.3363 80.8634L19.3277 79.872Z" fill="#29B473"/>
<path fill-rule="evenodd" clip-rule="evenodd" d="M4.50935 160.719L256.491 160.262C257.421 160.262 258.314 160.632 258.972 161.29C259.63 161.948 260 162.841 260 163.771C260 164.702 259.63 165.595 258.972 166.253C258.314 166.911 257.421 167.281 256.491 167.281H244.647C244.129 167.282 243.633 167.488 243.268 167.854C242.902 168.22 242.696 168.715 242.695 169.233C242.697 169.75 242.903 170.245 243.269 170.611C243.634 170.976 244.13 171.183 244.647 171.185H248.985C249.633 171.186 250.254 171.444 250.711 171.902C251.169 172.36 251.427 172.981 251.428 173.628C251.426 174.275 251.168 174.895 250.71 175.352C250.252 175.809 249.632 176.066 248.985 176.067L12.4054 176.524C11.7638 176.521 11.1491 176.266 10.6938 175.814C10.2385 175.362 9.97882 174.749 9.97077 174.107C9.97077 173.46 10.2268 172.84 10.6831 172.381C11.1393 171.922 11.7585 171.663 12.4054 171.66H15.827C16.3425 171.658 16.8368 171.454 17.203 171.091C17.5692 170.729 17.7777 170.236 17.7835 169.721C17.7823 169.203 17.5763 168.707 17.2104 168.342C16.8446 167.976 16.3488 167.77 15.8314 167.769H4.50935C3.57861 167.769 2.686 167.399 2.02787 166.741C1.36973 166.083 1 165.19 1 164.259C1 163.328 1.36973 162.436 2.02787 161.778C2.686 161.12 3.57861 160.75 4.50935 160.75V160.719ZM6.3386 176.538C5.71804 176.535 5.12356 176.288 4.68476 175.849C4.24596 175.41 3.99842 174.816 3.99611 174.195V174.002C3.99842 173.381 4.24596 172.787 4.68476 172.348C5.12356 171.909 5.71804 171.662 6.3386 171.66C6.95951 171.661 7.55466 171.908 7.99371 172.347C8.43276 172.786 8.67993 173.381 8.68109 174.002V174.195C8.67993 174.816 8.43276 175.411 7.99371 175.85C7.55466 176.289 6.95951 176.536 6.3386 176.538Z" fill="#229B62"/>
</svg>
